<svg id="Scene_Plants" data-name="Scene/Plants" xmlns="http://www.w3.org/2000/svg" width="83.998" height="109.342" viewBox="0 0 83.998 109.342">
  <path id="Leaf-Bottom" d="M44.373,60.178c1.216.525,2.76-.239,2.019-1.757-.793-1.626-3.4-1.51-4.876-1.4.148,0,.7,1.5.878,1.722A5,5,0,0,0,44.373,60.178ZM29.158,31.072C28.845,30.832,29.132,31.05,29.158,31.072ZM45.12,52.595a1.408,1.408,0,0,0,.05-2.108c-.714-.719-1.944-.627-2.86-.505-.414.055-2.625.349-2.08.685a1.8,1.8,0,0,1-.221-.092q-.087-.263-.181-.524c.013-.008.023-.017.037-.025-.015.007-.025.015-.038.023a20.4,20.4,0,0,0-2.552-4.9,4.8,4.8,0,0,0,1.165.247c1.166.086,3.556-.942,2.179-2.417-1.32-1.413-3.171.274-4.57.567a66.053,66.053,0,0,0-4.745-5.273.377.377,0,0,0,.22-.2,9.28,9.28,0,0,0,1.929.808c.856.135,2.6.153,3.2-.638.738-.973-.145-1.686-1.084-1.816-1.362-.189-3.093.563-4.367,1.076a.429.429,0,0,0-.4.157l-.084.032c-1.693-1.676-3.443-3.29-5.182-4.868h.054a4.492,4.492,0,0,0,1.427.563,3.81,3.81,0,0,0,3.433-.736,2.2,2.2,0,0,0,.13-3.248c-2.038-1.775-4.671,2.653-5.64,2.883-1.766-1.586-3.623-3.056-5.505-4.494a3.208,3.208,0,0,0,.638.1c1.776.077,5.812-2.308,3.531-4.326-1.988-1.759-3.988,1.932-5.446,3.262-1.773-1.339-3.555-2.667-5.293-4.054a4.835,4.835,0,0,0,2.75-.162c.988-.357,2.569-1.2,1.863-2.522-.718-1.345-2.631-.616-3.621-.125A27.5,27.5,0,0,1,11.3,21.484,33.372,33.372,0,0,1,4.17,13.335,29.206,29.206,0,0,1,1.347,7.051,19,19,0,0,1,.1,1.448C-.4,5.184,1.087,9.56,2.614,12.8A27.829,27.829,0,0,0,8.33,20.63c-.461,1.676-4.946,4.293-2.11,5.679,1.506.732,2.934-.689,3.179-2.127a6.028,6.028,0,0,0-.635-3.128Q9.85,22.1,11.01,23.068c1.066.894,2.155,1.759,3.253,2.612-1.646,1.717-3.041,6.452-.68,7.091,3.486.94,1.5-5.315,1.2-6.491a.187.187,0,0,0-.157.069c.014-.11.03-.227.051-.346,2.1,1.623,4.231,3.211,6.3,4.878a9.065,9.065,0,0,0-.635.937,10.152,10.152,0,0,0-1.23,2.006c-.5,1.143-.936,2.947.566,3.525,1.634.63,2.287-1.419,2.235-2.618a15.92,15.92,0,0,0-.463-2.411c-.05-.251.032-1.4-.288-.892a2.427,2.427,0,0,0-.011-.406q.557.451,1.106.912a.432.432,0,0,0-.024.139.415.415,0,0,0,.613.359q.726.621,1.436,1.262c1,.909,2.016,1.844,3.026,2.8-.2.189-.1.432-.287.632s-.56.324-.779.511a5.52,5.52,0,0,0-1.3,1.792c-.513,1.076-1.132,3.31.553,3.722,1.737.425,2.494-1.734,2.535-3.061a33.751,33.751,0,0,0-.5-3.383c1.869,1.778,3.713,3.628,5.395,5.52a6.139,6.139,0,0,0-2.044,1.363c-.635.688-1.623,2.185-.41,2.887,1.079.622,2.313-.426,2.709-1.4a13.381,13.381,0,0,0,.233-2.29c.7.8,1.364,1.613,1.988,2.428q.624.812,1.176,1.671a.782.782,0,0,0-.218.239c-1.724.386-3.8,3.217-1.707,4.055,1,.4,2-.584,2.44-1.368a10.12,10.12,0,0,0,.3-1.572A32.616,32.616,0,0,1,40,54.251a.38.38,0,0,0-.278.368,5.19,5.19,0,0,0-2.007,1.919c-.336.594-.927,1.943.166,2.206,1.423.342,2.19-1.844,2.25-2.9.007-.123-.012-.479-.034-.8a.473.473,0,0,0,.146-.01c.39,1.295.717,2.609.991,3.929-.752.286-.673,4.308-.134,4.853,1.2,1.221,1.911-.671,1.8-1.645a6.46,6.46,0,0,0-1.38-3.067c-.072-.1-.053-.091-.063.047a.276.276,0,0,0-.074-.151,17.469,17.469,0,0,0-.028-1.768,40.935,40.935,0,0,0-.766-4.573q-.124-.549-.274-1.087a8.917,8.917,0,0,0,1.827,1.042C43,52.938,44.318,53.278,45.12,52.595ZM0,1.448A4.328,4.328,0,0,1,.241,0,11.267,11.267,0,0,0,0,1.448Z" transform="matrix(-0.999, -0.052, 0.052, -0.999, 46.521, 66.555)" fill="#f2f2f2" fill-rule="evenodd"/>
  <g id="Plant-Right" transform="translate(21.934 12.645)" opacity="0.7">
    <path id="Leaf-Me-Alone_" data-name="Leaf-Me-Alone!" d="M16.149,57.2c-3.3-.174-7.147-2.513-7.122-6.112.018-2.615.368-5.188.247-7.814a21.041,21.041,0,0,0-1.262-6.128c-.682-1.9-2.328-3.631-2.6-5.613a8.337,8.337,0,0,1,.72-4.139c.657-1.412.377-1.324-.5-2.658a33.542,33.542,0,0,1-4.165-8.278C.109,12.119-.562,7.152.583,2.687.728,2.12,1.046.064,1.855,0c.9-.068.364,1.07.277,1.447a25.1,25.1,0,0,0-.946,7.019c.4,9.694,6.587,16.7,10.195,25.276.2.444.614,1.493.905,2.187.459,1.1.823,3.128,1.511,3.977,1.3,1.6.271-1.45.047-2.036-.283-.74-.6-1.529-.9-2.183-1.373-3.03-2.913-6.343-4.332-9.467,7.653-.917,11.972,8.621,13.356,14.738C23.111,46,23.892,57.588,16.149,57.2" transform="matrix(-0.995, 0.105, -0.105, -0.995, 28.544, 83.044)" fill="#69a1ac" fill-rule="evenodd"/>
    <path id="Leaf-Me-Alone_2" data-name="Leaf-Me-Alone!" d="M133.573,78.029c-5.509.437-9.045,4.072-10.692,9.156-.887,2.74-.989,5.555-1.482,8.37a17.882,17.882,0,0,1-5.457,10.465,10.532,10.532,0,0,0-2.184,2.921,12.442,12.442,0,0,0-2.522,3.6,6.655,6.655,0,0,0-.105,5.79,5.936,5.936,0,0,0,1.549,1.9,37.291,37.291,0,0,0-3.669,16.75c.092,3.468.262,6.937.459,10.4.053.93.356,2.466.811.906.416-1.427-.106-3.666-.154-5.157-.235-7.261-.436-13.862,2.553-20.646q.47-1.066.992-2.116a.7.7,0,0,0,.058-.04l.038.031c.022-.039.052-.086.088-.139a1.871,1.871,0,0,0,.268-.376,2.729,2.729,0,0,0,.567-1.035s0,0,0-.007a97.747,97.747,0,0,1,6.134-8.672c-.016.02,2.348-3.2,1.982-1.419-.176.858-1.915,2.492-2.618,3.4a84.714,84.714,0,0,0-4.894,7.06,3.565,3.565,0,0,0-.7,1.122c-.115.217-.222.436-.328.627,5.372,1.775,9.551-1.8,12.4-5.959l.01-.015a18.07,18.07,0,0,1,2.865-3.2c1.851-1.516,3.834-1.783,6.017-2.529,5.953-2.034,8.484-9.749,9.288-15.474.907-6.458-3.529-16.362-11.275-15.725" transform="translate(-82.901 -59.266)" fill="#89c5cc" fill-rule="evenodd"/>
    <path id="Leaf-Me-Alone_3" data-name="Leaf-Me-Alone!" d="M23.676.551c-6.418,5.04-10.259,12.742-13.468,20.04a98.829,98.829,0,0,0-7.677,25.36C1.676,51.742.7,57.553.223,63.391A62.221,62.221,0,0,0,.01,69.633c0,.171.094,4.816.941,3.855.481-.546-.085-4.817-.076-5.514a89.329,89.329,0,0,1,1.058-11.7c.938-6.389,1.643-12.776,3.186-19.056a21.768,21.768,0,0,1,.8-2.825c.379-.956.013-.567.849-.848.813-.274,1.743-.088,2.6-.455,3.391-1.456,5.673-6.1,7.366-9.116A61.783,61.783,0,0,0,21.316,13a81.115,81.115,0,0,0,2.268-8.339,22.327,22.327,0,0,1,.629-2.7,6.234,6.234,0,0,0,.4-.835C24.659.681,24.425.38,24.456,0q-.4.267-.781.551" transform="translate(16.269 3.426) rotate(-8)" fill="#89c5cc" fill-rule="evenodd"/>
    <path id="Base" d="M38,328a17.62,17.62,0,1,0,35.24,0" transform="translate(-29.038 -248.923)" fill="#89c5cc" fill-rule="evenodd"/>
    <path id="Leaf-Me-Alone_4" data-name="Leaf-Me-Alone!" d="M113.931,279.5H113a31.231,31.231,0,0,1,.345-3.489c.747-4.418,3.082-10.906,8.2-11.623a13.21,13.21,0,0,1,1.726.018,3.112,3.112,0,0,1,1.317-.389c4.361-.322,9.231,3.2,11.334,6.858,1.7,2.952,1.41,6.828.363,9.964-.7,2.1-2.232,5.093-4.785,5.122-3.194.036-3.348-3.911-3.41-6.219-.082-3.068-.47-5.741-2.887-7.832-.563-.487-1.179-.916-1.748-1.4-.891-.752-1.876-1.522-1.991-2.766-.158-1.716.81-2.025,2.289-1.706.252.054,2.792,1.194,2.416.293a1.675,1.675,0,0,0-1.063-.657,19.92,19.92,0,0,0-3.473-.218c-5.068,1.112-7.041,8.132-7.565,12.592C114.017,278.537,113.971,279.02,113.931,279.5Z" transform="translate(-85.935 -200.371)" fill="#69a1ac" fill-rule="evenodd"/>
  </g>
</svg>
