<?xml version="1.0" encoding="UTF-8" standalone="no"?>
<!-- Created with Inkscape (http://www.inkscape.org/) -->

<svg
   xmlns:dc="http://purl.org/dc/elements/1.1/"
   xmlns:cc="http://creativecommons.org/ns#"
   xmlns:rdf="http://www.w3.org/1999/02/22-rdf-syntax-ns#"
   xmlns:svg="http://www.w3.org/2000/svg"
   xmlns="http://www.w3.org/2000/svg"
   xmlns:sodipodi="http://sodipodi.sourceforge.net/DTD/sodipodi-0.dtd"
   xmlns:inkscape="http://www.inkscape.org/namespaces/inkscape"
   id="svg3364"
   version="1.1"
   inkscape:version="0.91 r13725"
   xml:space="preserve"
   width="1000"
   height="616.5376"
   viewBox="0 0 999.99998 616.5376"
   sodipodi:docname="AngkorWat.svg"><metadata
     id="metadata3370"><rdf:RDF><cc:Work
         rdf:about=""><dc:format>image/svg+xml</dc:format><dc:type
           rdf:resource="http://purl.org/dc/dcmitype/StillImage" /><dc:title></dc:title></cc:Work></rdf:RDF></metadata><defs
     id="defs3368" /><sodipodi:namedview
     pagecolor="#ffffff"
     bordercolor="#666666"
     borderopacity="1"
     objecttolerance="10"
     gridtolerance="10"
     guidetolerance="10"
     inkscape:pageopacity="0"
     inkscape:pageshadow="2"
     inkscape:window-width="1600"
     inkscape:window-height="837"
     id="namedview3366"
     showgrid="false"
     fit-margin-top="0"
     fit-margin-left="0"
     fit-margin-right="0"
     fit-margin-bottom="0"
     inkscape:zoom="1.0867139"
     inkscape:cx="500"
     inkscape:cy="308.2688"
     inkscape:window-x="-8"
     inkscape:window-y="-8"
     inkscape:window-maximized="1"
     inkscape:current-layer="g3372" /><g
     id="g3372"
     inkscape:groupmode="layer"
     inkscape:label="flag-1040545 (1)"
     transform="matrix(1.25,0,0,-1.25,-311.71879,1076.092)"><g
       id="g4987"
       style="fill:#a66900;fill-opacity:1"><path
         inkscape:connector-curvature="0"
         id="path3376"
         style="fill:#a66900;fill-opacity:1;fill-rule:nonzero;stroke:#000000;stroke-width:0.25;stroke-linecap:butt;stroke-linejoin:miter;stroke-miterlimit:4;stroke-dasharray:none;stroke-opacity:1"
         d="" /><path
         inkscape:connector-curvature="0"
         id="path3380"
         style="fill:#a66900;fill-opacity:1;fill-rule:nonzero;stroke:#000000;stroke-width:1.84631753;stroke-linecap:round;stroke-linejoin:round;stroke-miterlimit:4;stroke-dasharray:none;stroke-opacity:1"
         d="m 961.25665,497.67914 c -4.69149,2.34756 -12.0696,10.40718 -14.08179,16.77912 0,0 0,41.57456 0,54.65387 0,13.07932 6.36839,21.12808 13.74643,24.48173 l 0,57.6794 c -1.67321,-4.35974 -11.73424,-2.84879 -11.73424,-12.40858 l -599.62404,0 c 0,9.55979 -10.06102,8.04884 -11.73785,12.40858 l 0,-57.6794 c 7.37811,-3.35365 13.75005,-11.40241 13.75005,-24.48173 0,-13.07931 0,-54.65387 0,-54.65387 -2.0122,-6.37194 -9.3903,-14.43156 -14.08179,-16.77912 l 623.76323,0 z" /><path
         inkscape:connector-curvature="0"
         id="path3382"
         style="fill:#a66900;fill-opacity:1;fill-rule:nonzero;stroke:#000000;stroke-width:1.84631753;stroke-linecap:round;stroke-linejoin:round;stroke-miterlimit:4;stroke-dasharray:none;stroke-opacity:1"
         d="m 973.66523,497.67914 0,-15.76223 -648.58394,0 0,15.76223 648.58394,0 z" /><path
         inkscape:connector-curvature="0"
         id="path3384"
         style="fill:#a66900;fill-opacity:1;fill-rule:nonzero;stroke:#000000;stroke-width:1.84631753;stroke-linecap:round;stroke-linejoin:round;stroke-miterlimit:4;stroke-dasharray:none;stroke-opacity:1"
         d="m 987.07984,481.91691 0,-22.63541 -675.40961,0 0,22.63541 675.40961,0 z" /><path
         inkscape:connector-curvature="0"
         id="path3386"
         style="fill:#a66900;fill-opacity:1;fill-rule:nonzero;stroke:#000000;stroke-width:1.84631753;stroke-linecap:round;stroke-linejoin:round;stroke-miterlimit:4;stroke-dasharray:none;stroke-opacity:1"
         d="m 1005.1896,459.2815 0,-26.15855 -711.62916,0 0,26.15855 711.62916,0 z" /><path
         inkscape:connector-curvature="0"
         id="path3388"
         style="fill:#a66900;fill-opacity:1;fill-rule:nonzero;stroke:#000000;stroke-width:1.84631753;stroke-linecap:round;stroke-linejoin:round;stroke-miterlimit:4;stroke-dasharray:none;stroke-opacity:1"
         d="m 1024.9762,433.12295 0,-31.85984 -751.20238,0 0,31.85984 751.20238,0 z" /><path
         inkscape:connector-curvature="0"
         id="path3390"
         style="fill:#a66900;fill-opacity:1;fill-rule:nonzero;stroke:#000000;stroke-width:1.84631753;stroke-linecap:round;stroke-linejoin:round;stroke-miterlimit:4;stroke-dasharray:none;stroke-opacity:1"
         d="m 1048.4519,401.26311 0,-32.69643 -798.15371,0 0,32.69643 798.15371,0 z" /><path
         inkscape:connector-curvature="0"
         id="path3392"
         style="fill:#a66900;fill-opacity:1;fill-rule:nonzero;stroke:#000000;stroke-width:1.84631753;stroke-linecap:round;stroke-linejoin:round;stroke-miterlimit:4;stroke-dasharray:none;stroke-opacity:1"
         d="m 636.63289,514.45826 -285.05768,0" /><path
         inkscape:connector-curvature="0"
         id="path3394"
         style="fill:#a66900;fill-opacity:1;fill-rule:nonzero;stroke:#000000;stroke-width:1.84631753;stroke-linecap:round;stroke-linejoin:round;stroke-miterlimit:4;stroke-dasharray:none;stroke-opacity:1"
         d="m 466.77168,598.28897 c 0,8.04522 0,82.4965 0,86.35146 0,3.85851 -0.78247,5.21799 -3.85489,4.19388 -4.02438,-1.34147 -7.04266,-5.70129 -9.39022,-10.06103 -2.34756,-4.35975 -7.71347,-2.51343 -7.71347,0.50146 0,12.40858 7.20861,8.71956 7.20861,19.45125 0,3.68901 -3.18423,2.34755 -6.70737,-0.16617 -3.51953,-2.51705 -3.68902,2.01219 -3.68902,6.20252 0,6.03657 4.69511,4.19387 4.69511,12.07314 0,4.52924 -4.02438,2.18169 -6.53781,-0.33529 -2.51705,-2.51343 -4.19387,-1.50733 -4.19387,4.02438 0,6.03665 6.03657,6.20614 6.03657,11.73786 0,3.35727 -2.84879,2.34755 -4.69511,-0.16617 -1.8427,-2.51705 -6.37194,-2.01219 -5.70121,0.8366 2.29342,9.74006 -2.84879,19.62074 -6.87325,22.97439 -4.02438,3.35366 -4.35974,5.53172 -4.35974,8.38051 0,2.85242 -0.3353,4.52932 -2.34756,4.52932 -2.01219,0 -2.34756,-1.6769 -2.34756,-4.52932 0,-2.84879 -0.33529,-5.02685 -4.35974,-8.38051 -4.02438,-3.35365 -9.16667,-13.23433 -6.87687,-22.97439 0.67058,-2.84879 -3.85489,-3.35365 -5.69759,-0.8366 -1.84632,2.51343 -4.69511,3.52314 -4.69511,0.16617 0,-5.53172 6.03657,-5.70121 6.03657,-11.73786 0,-5.53171 -1.68044,-6.53781 -4.19387,-4.02438 -2.51343,2.51705 -6.53781,4.86461 -6.53781,0.33529 0,-7.87927 4.69511,-6.03657 4.69511,-12.07314 0,-4.19033 -0.16986,-8.71957 -3.68902,-6.20252 -3.52314,2.51343 -6.70737,3.85489 -6.70737,0.16617 0,-10.73169 7.20861,-7.04267 7.20861,-19.45125 0,-3.01467 -5.36584,-4.86099 -7.71347,-0.50146 -2.34756,4.35974 -5.36584,8.71956 -9.39022,10.06103 -3.07242,1.02411 -3.85489,-0.3353 -3.85489,-4.19388 0,-3.85496 0,-78.30624 0,-86.35146 l 96.24646,0 z" /><path
         inkscape:connector-curvature="0"
         id="path3396"
         style="fill:#a66900;fill-opacity:1;fill-rule:nonzero;stroke:#000000;stroke-width:1.84631753;stroke-linecap:round;stroke-linejoin:round;stroke-miterlimit:4;stroke-dasharray:none;stroke-opacity:1"
         d="m 432.39849,591.21027 0,-93.53113 -27.50008,0 0,93.53113 27.50008,0 z" /><path
         inkscape:connector-curvature="0"
         id="path3398"
         style="fill:#a66900;fill-opacity:1;fill-rule:nonzero;stroke:#000000;stroke-width:1.84631753;stroke-linecap:round;stroke-linejoin:round;stroke-miterlimit:4;stroke-dasharray:none;stroke-opacity:1"
         d="m 443.13018,368.56668 0,129.11246 -48.96346,0 0,-129.11246 48.96346,0 z" /><path
         inkscape:connector-curvature="0"
         id="path3400"
         style="fill:#a66900;fill-opacity:1;fill-rule:nonzero;stroke:#000000;stroke-width:1.84631753;stroke-linecap:round;stroke-linejoin:round;stroke-miterlimit:4;stroke-dasharray:none;stroke-opacity:1"
         d="m 432.39849,368.56668 0,129.11246 -27.50008,0 0,-129.11246 27.50008,0 z" /><path
         inkscape:connector-curvature="0"
         id="path3402"
         style="fill:#a66900;fill-opacity:1;stroke:#000000;stroke-width:1.84631753;stroke-linecap:round;stroke-linejoin:round;stroke-miterlimit:4;stroke-dasharray:none;stroke-opacity:1"
         d="m 389.47161,591.21027 c 5.70121,-4.86106 8.55362,-8.83855 8.55362,-17.23715 0,-9.5561 0,-55.82585 0,-59.51486 0,-3.68902 -4.19387,-16.77912 -14.2549,-16.77912" /><path
         inkscape:connector-curvature="0"
         id="path3404"
         style="fill:#a66900;fill-opacity:1;stroke:#000000;stroke-width:1.84631753;stroke-linecap:round;stroke-linejoin:round;stroke-miterlimit:4;stroke-dasharray:none;stroke-opacity:1"
         d="m 368.51303,497.67914 c 13.07924,0 15.76216,10.24131 15.76216,16.77912 0,7.71339 0,61.19169 0,69.57589 0,8.38412 -7.88289,13.07924 -13.74997,14.25482 l -20.96221,0" /><path
         inkscape:connector-curvature="0"
         id="path3406"
         style="fill:#a66900;fill-opacity:1;stroke:#000000;stroke-width:1.84631753;stroke-linecap:round;stroke-linejoin:round;stroke-miterlimit:4;stroke-dasharray:none;stroke-opacity:1"
         d="m 447.82529,591.21027 c -5.70121,-4.86106 -8.55362,-8.83855 -8.55362,-17.23715 0,-9.5561 0,-55.82585 0,-59.51486 0,-3.68902 4.19387,-16.77912 14.2549,-16.77912" /><path
         inkscape:connector-curvature="0"
         id="path3408"
         style="fill:#a66900;fill-opacity:1;stroke:#000000;stroke-width:1.84631753;stroke-linecap:round;stroke-linejoin:round;stroke-miterlimit:4;stroke-dasharray:none;stroke-opacity:1"
         d="m 466.77168,598.28897 c -5.86708,-1.17558 -13.74997,-5.8707 -13.74997,-14.25482 0,-8.3842 0,-61.8625 0,-69.57589 0,-6.53781 2.68292,-16.77912 15.76216,-16.77912" /><path
         inkscape:connector-curvature="0"
         id="path3412"
         style="fill:#a66900;fill-opacity:1;fill-rule:nonzero;stroke:#000000;stroke-width:1.84631753;stroke-linecap:round;stroke-linejoin:round;stroke-miterlimit:4;stroke-dasharray:none;stroke-opacity:1"
         d="m 370.52522,598.28897 c 0,10.2269 -10.31346,25.14892 -20.96221,25.14892 l 0,45.10856 8.88899,0 0,-40.24396 c 1.38112,-0.29246 2.22134,-1.38474 2.68292,-2.18168 l 0,23.14026 9.3903,0 0,-50.9721 z" /><path
         inkscape:connector-curvature="0"
         id="path3414"
         style="fill:#a66900;fill-opacity:1;fill-rule:nonzero;stroke:#000000;stroke-width:1.84631753;stroke-linecap:round;stroke-linejoin:round;stroke-miterlimit:4;stroke-dasharray:none;stroke-opacity:1"
         d="m 370.52522,661.08179 -9.3903,0 0,-7.79633 9.3903,0 0,7.79633 z" /><path
         inkscape:connector-curvature="0"
         id="path3416"
         style="fill:#a66900;fill-opacity:1;stroke:#000000;stroke-width:1.84631753;stroke-linecap:round;stroke-linejoin:round;stroke-miterlimit:4;stroke-dasharray:none;stroke-opacity:1"
         d="m 487.73027,638.86468 0,-40.57571 -20.95859,0" /><path
         inkscape:connector-curvature="0"
         id="path3418"
         style="fill:#a66900;fill-opacity:1;stroke:#000000;stroke-width:1.84631753;stroke-linecap:round;stroke-linejoin:round;stroke-miterlimit:4;stroke-dasharray:none;stroke-opacity:1"
         d="m 466.77168,598.28897 c 0,17.60494 13.58055,25.14892 20.95859,25.14892" /><path
         inkscape:connector-curvature="0"
         id="path3420"
         style="fill:#a66900;fill-opacity:1;fill-rule:nonzero;stroke:#000000;stroke-width:1.84631753;stroke-linecap:round;stroke-linejoin:round;stroke-miterlimit:4;stroke-dasharray:none;stroke-opacity:1"
         d="m 482.03268,644.98426 0,-22.72196 c 2.0627,0.79332 4.03878,1.17559 5.69759,1.17559 l 0,21.54637 -5.69759,0 z" /><path
         inkscape:connector-curvature="0"
         id="path3422"
         style="fill:#a66900;fill-opacity:1;stroke:#000000;stroke-width:1.84631753;stroke-linecap:round;stroke-linejoin:round;stroke-miterlimit:4;stroke-dasharray:none;stroke-opacity:1"
         d="m 487.73027,633.8342 77.805,0" /><path
         inkscape:connector-curvature="0"
         id="path3424"
         style="fill:#a66900;fill-opacity:1;stroke:#000000;stroke-width:1.84631753;stroke-linecap:round;stroke-linejoin:round;stroke-miterlimit:4;stroke-dasharray:none;stroke-opacity:1"
         d="m 487.73027,616.39514 77.805,0" /><path
         inkscape:connector-curvature="0"
         id="path3426"
         style="fill:#a66900;fill-opacity:1;stroke:#000000;stroke-width:1.84631753;stroke-linecap:round;stroke-linejoin:round;stroke-miterlimit:4;stroke-dasharray:none;stroke-opacity:1"
         d="m 487.73027,607.00492 58.01838,0" /><path
         inkscape:connector-curvature="0"
         id="path3428"
         style="fill:#a66900;fill-opacity:1;stroke:#000000;stroke-width:1.84631753;stroke-linecap:round;stroke-linejoin:round;stroke-miterlimit:4;stroke-dasharray:none;stroke-opacity:1"
         d="m 574.08534,591.24631 c -4.35982,0 -81.32098,0 -86.52095,0 -5.19997,0 -5.53171,-2.34756 -5.53171,-5.03048 0,-5.03048 0,-63.37345 0,-71.75757 0,-6.03658 5.19635,-16.77912 15.59274,-16.77912" /><path
         inkscape:connector-curvature="0"
         id="path3430"
         style="fill:#a66900;fill-opacity:1;stroke:#000000;stroke-width:1.84631753;stroke-linecap:round;stroke-linejoin:round;stroke-miterlimit:4;stroke-dasharray:none;stroke-opacity:1"
         d="m 482.03268,574.81334 93.89898,0" /><path
         inkscape:connector-curvature="0"
         id="path3432"
         style="fill:#a66900;fill-opacity:1;stroke:#000000;stroke-width:1.84631753;stroke-linecap:round;stroke-linejoin:round;stroke-miterlimit:4;stroke-dasharray:none;stroke-opacity:1"
         d="m 367.7341,514.45826 0,48.199 c 0,0.75005 0.61298,1.3631 1.36672,1.3631 l 7.46097,0 c 0.75005,0 1.3631,-0.61298 1.3631,-1.3631 l 0,-48.199" /><path
         inkscape:connector-curvature="0"
         id="path3434"
         style="fill:#a66900;fill-opacity:1;stroke:#000000;stroke-width:1.84631753;stroke-linecap:round;stroke-linejoin:round;stroke-miterlimit:4;stroke-dasharray:none;stroke-opacity:1"
         d="m 487.73027,598.28897 77.805,0" /><path
         inkscape:connector-curvature="0"
         id="path3436"
         style="fill:#a66900;fill-opacity:1;stroke:#000000;stroke-width:1.84631753;stroke-linecap:round;stroke-linejoin:round;stroke-miterlimit:4;stroke-dasharray:none;stroke-opacity:1"
         d="m 461.972,514.45826 0,48.199 c 0,0.75005 0.60928,1.3631 1.36309,1.3631 l 7.46105,0 c 0.75366,0 1.3631,-0.61298 1.3631,-1.3631 l 0,-48.199" /><path
         inkscape:connector-curvature="0"
         id="path3438"
         style="fill:#a66900;fill-opacity:1;stroke:#000000;stroke-width:1.84631753;stroke-linecap:round;stroke-linejoin:round;stroke-miterlimit:4;stroke-dasharray:none;stroke-opacity:1"
         d="m 482.03268,564.02036 6.87317,0 c 0.75367,0 1.3631,-0.61298 1.3631,-1.3631 l 0,-48.199" /><path
         inkscape:connector-curvature="0"
         id="path3440"
         style="fill:#a66900;fill-opacity:1;stroke:#000000;stroke-width:1.84631753;stroke-linecap:round;stroke-linejoin:round;stroke-miterlimit:4;stroke-dasharray:none;stroke-opacity:1"
         d="m 512.40312,514.45826 0,48.199 c 0,0.75005 -0.60928,1.3631 -1.36309,1.3631 l -7.46097,0 c -0.75367,0 -1.36672,-0.61298 -1.36672,-1.3631 l 0,-48.199" /><path
         inkscape:connector-curvature="0"
         id="path3442"
         style="fill:#a66900;fill-opacity:1;stroke:#000000;stroke-width:1.84631753;stroke-linecap:round;stroke-linejoin:round;stroke-miterlimit:4;stroke-dasharray:none;stroke-opacity:1"
         d="m 534.5373,514.45826 0,48.199 c 0,0.75005 -0.61298,1.3631 -1.3631,1.3631 l -7.46459,0 c -0.75005,0 -1.3631,-0.61298 -1.3631,-1.3631 l 0,-48.199" /><path
         inkscape:connector-curvature="0"
         id="path3444"
         style="fill:#a66900;fill-opacity:1;stroke:#000000;stroke-width:1.84631753;stroke-linecap:round;stroke-linejoin:round;stroke-miterlimit:4;stroke-dasharray:none;stroke-opacity:1"
         d="m 556.67154,514.45826 0,48.199 c 0,0.75005 -0.61298,1.3631 -1.36317,1.3631 l -7.46459,0 c -0.75005,0 -1.3631,-0.61298 -1.3631,-1.3631 l 0,-48.199" /><path
         inkscape:connector-curvature="0"
         id="path3446"
         style="fill:#a66900;fill-opacity:1;stroke:#000000;stroke-width:1.84631753;stroke-linecap:round;stroke-linejoin:round;stroke-miterlimit:4;stroke-dasharray:none;stroke-opacity:1"
         d="m 568.61485,514.45826 0,48.199 c 0,0.75005 0.60929,1.3631 1.3631,1.3631 l 5.95371,0" /><path
         inkscape:connector-curvature="0"
         id="path3448"
         style="fill:#a66900;fill-opacity:1;fill-rule:nonzero;stroke:#000000;stroke-width:1.84631753;stroke-linecap:round;stroke-linejoin:round;stroke-miterlimit:4;stroke-dasharray:none;stroke-opacity:1"
         d="m 662.11717,514.45826 285.05769,0" /><path
         inkscape:connector-curvature="0"
         id="path3450"
         style="fill:#a66900;fill-opacity:1;fill-rule:nonzero;stroke:#000000;stroke-width:1.84631753;stroke-linecap:round;stroke-linejoin:round;stroke-miterlimit:4;stroke-dasharray:none;stroke-opacity:1"
         d="m 831.97838,598.28897 c 0,8.04522 0,82.4965 0,86.35146 0,3.85851 0.78247,5.21799 3.85489,4.19388 4.02439,-1.34147 7.04267,-5.70129 9.39023,-10.06103 2.34763,-4.35975 7.71347,-2.51343 7.71347,0.50146 0,12.40858 -7.20862,8.71956 -7.20862,19.45125 0,3.68901 3.18424,2.34755 6.70738,-0.16617 3.51952,-2.51705 3.68902,2.01219 3.68902,6.20252 0,6.03657 -4.69511,4.19387 -4.69511,12.07314 0,4.52924 4.02438,2.18169 6.53781,-0.33529 2.51704,-2.51343 4.19387,-1.50733 4.19387,4.02438 0,6.03665 -6.03657,6.20614 -6.03657,11.73786 0,3.35727 2.84879,2.34755 4.69511,-0.16617 1.8427,-2.51705 6.37194,-2.01219 5.70121,0.8366 -2.29343,9.74006 2.84886,19.62074 6.87324,22.97439 4.02439,3.35366 4.35975,5.53172 4.35975,8.38051 0,2.85242 0.33529,4.52932 2.34756,4.52932 2.01219,0 2.34755,-1.6769 2.34755,-4.52932 0,-2.84879 0.33529,-5.02685 4.35975,-8.38051 4.02445,-3.35365 9.16667,-13.23433 6.87325,-22.97439 -0.67058,-2.84879 3.85851,-3.35365 5.70121,-0.8366 1.84631,2.51343 4.69511,3.52314 4.69511,0.16617 0,-5.53172 -6.03658,-5.70121 -6.03658,-11.73786 0,-5.53171 1.67683,-6.53781 4.19388,-4.02438 2.51343,2.51705 6.53781,4.86461 6.53781,0.33529 0,-7.87927 -4.69511,-6.03657 -4.69511,-12.07314 0,-4.19033 0.16912,-8.71957 3.68901,-6.20252 3.52315,2.51343 6.70738,3.85489 6.70738,0.16617 0,-10.73169 -7.20861,-7.04267 -7.20861,-19.45125 0,-3.01467 5.36591,-4.86099 7.71347,-0.50146 2.34755,4.35974 5.36584,8.71956 9.39022,10.06103 3.07242,1.02411 3.85489,-0.3353 3.85489,-4.19388 0,-3.85496 0,-78.30624 0,-86.35146 l -96.24647,0 z" /><path
         inkscape:connector-curvature="0"
         id="path3452"
         style="fill:#a66900;fill-opacity:1;fill-rule:nonzero;stroke:#000000;stroke-width:1.84631753;stroke-linecap:round;stroke-linejoin:round;stroke-miterlimit:4;stroke-dasharray:none;stroke-opacity:1"
         d="m 866.35157,591.21027 0,-93.53113 27.50009,0 0,93.53113 -27.50009,0 z" /><path
         inkscape:connector-curvature="0"
         id="path3454"
         style="fill:#a66900;fill-opacity:1;fill-rule:nonzero;stroke:#000000;stroke-width:1.84631753;stroke-linecap:round;stroke-linejoin:round;stroke-miterlimit:4;stroke-dasharray:none;stroke-opacity:1"
         d="m 855.61989,368.56668 0,129.11246 48.96345,0 0,-129.11246 -48.96345,0 z" /><path
         inkscape:connector-curvature="0"
         id="path3456"
         style="fill:#a66900;fill-opacity:1;fill-rule:nonzero;stroke:#000000;stroke-width:1.84631753;stroke-linecap:round;stroke-linejoin:round;stroke-miterlimit:4;stroke-dasharray:none;stroke-opacity:1"
         d="m 866.35157,368.56668 0,129.11246 27.50009,0 0,-129.11246 -27.50009,0 z" /><path
         inkscape:connector-curvature="0"
         id="path3458"
         style="fill:#a66900;fill-opacity:1;stroke:#000000;stroke-width:1.84631753;stroke-linecap:round;stroke-linejoin:round;stroke-miterlimit:4;stroke-dasharray:none;stroke-opacity:1"
         d="m 909.27846,591.21027 c -5.70121,-4.86106 -8.55362,-8.83855 -8.55362,-17.23715 0,-9.5561 0,-55.82585 0,-59.51486 0,-3.68902 4.19387,-16.77912 14.2549,-16.77912" /><path
         inkscape:connector-curvature="0"
         id="path3460"
         style="fill:#a66900;fill-opacity:1;stroke:#000000;stroke-width:1.84631753;stroke-linecap:round;stroke-linejoin:round;stroke-miterlimit:4;stroke-dasharray:none;stroke-opacity:1"
         d="m 930.23704,497.67914 c -13.07924,0 -15.76216,10.24131 -15.76216,16.77912 0,7.71339 0,61.19169 0,69.57589 0,8.38412 7.88289,13.07924 13.74997,14.25482 l 20.9622,0" /><path
         inkscape:connector-curvature="0"
         id="path3462"
         style="fill:#a66900;fill-opacity:1;stroke:#000000;stroke-width:1.84631753;stroke-linecap:round;stroke-linejoin:round;stroke-miterlimit:4;stroke-dasharray:none;stroke-opacity:1"
         d="m 850.92478,591.21027 c 5.7012,-4.86106 8.55362,-8.83855 8.55362,-17.23715 0,-9.5561 0,-55.82585 0,-59.51486 0,-3.68902 -4.19388,-16.77912 -14.2549,-16.77912" /><path
         inkscape:connector-curvature="0"
         id="path3464"
         style="fill:#a66900;fill-opacity:1;stroke:#000000;stroke-width:1.84631753;stroke-linecap:round;stroke-linejoin:round;stroke-miterlimit:4;stroke-dasharray:none;stroke-opacity:1"
         d="m 831.97838,598.28897 c 5.86708,-1.17558 13.74997,-5.8707 13.74997,-14.25482 0,-8.3842 0,-61.8625 0,-69.57589 0,-6.53781 -2.68292,-16.77912 -15.76216,-16.77912" /><path
         inkscape:connector-curvature="0"
         id="path3468"
         style="fill:#a66900;fill-opacity:1;fill-rule:nonzero;stroke:#000000;stroke-width:1.84631753;stroke-linecap:round;stroke-linejoin:round;stroke-miterlimit:4;stroke-dasharray:none;stroke-opacity:1"
         d="m 928.22485,598.28897 c 0,10.2269 10.31346,25.14892 20.9622,25.14892 l 0,45.10856 -8.88898,0 0,-40.24396 c -1.38474,-0.29246 -2.22134,-1.38474 -2.68292,-2.18168 l 0,23.14026 -9.3903,0 0,-50.9721 z" /><path
         inkscape:connector-curvature="0"
         id="path3470"
         style="fill:#a66900;fill-opacity:1;fill-rule:nonzero;stroke:#000000;stroke-width:1.84631753;stroke-linecap:round;stroke-linejoin:round;stroke-miterlimit:4;stroke-dasharray:none;stroke-opacity:1"
         d="m 928.22485,661.08179 9.3903,0 0,-7.79633 -9.3903,0 0,7.79633 z" /><path
         inkscape:connector-curvature="0"
         id="path3472"
         style="fill:#a66900;fill-opacity:1;stroke:#000000;stroke-width:1.84631753;stroke-linecap:round;stroke-linejoin:round;stroke-miterlimit:4;stroke-dasharray:none;stroke-opacity:1"
         d="m 811.01618,638.86468 0,-40.57571 20.9622,0" /><path
         inkscape:connector-curvature="0"
         id="path3474"
         style="fill:#a66900;fill-opacity:1;stroke:#000000;stroke-width:1.84631753;stroke-linecap:round;stroke-linejoin:round;stroke-miterlimit:4;stroke-dasharray:none;stroke-opacity:1"
         d="m 831.97838,598.28897 c 0,17.60494 -13.58417,25.14892 -20.9622,25.14892" /><path
         inkscape:connector-curvature="0"
         id="path3476"
         style="fill:#a66900;fill-opacity:1;fill-rule:nonzero;stroke:#000000;stroke-width:1.84631753;stroke-linecap:round;stroke-linejoin:round;stroke-miterlimit:4;stroke-dasharray:none;stroke-opacity:1"
         d="m 816.71739,644.98426 0,-22.72196 c -2.06271,0.79332 -4.03878,1.17559 -5.70121,1.17559 l 0,21.54637 5.70121,0 z" /><path
         inkscape:connector-curvature="0"
         id="path3478"
         style="fill:#a66900;fill-opacity:1;stroke:#000000;stroke-width:1.84631753;stroke-linecap:round;stroke-linejoin:round;stroke-miterlimit:4;stroke-dasharray:none;stroke-opacity:1"
         d="m 811.01618,633.8342 -77.80138,0" /><path
         inkscape:connector-curvature="0"
         id="path3480"
         style="fill:#a66900;fill-opacity:1;stroke:#000000;stroke-width:1.84631753;stroke-linecap:round;stroke-linejoin:round;stroke-miterlimit:4;stroke-dasharray:none;stroke-opacity:1"
         d="m 811.01618,616.39514 -77.80138,0" /><path
         inkscape:connector-curvature="0"
         id="path3482"
         style="fill:#a66900;fill-opacity:1;stroke:#000000;stroke-width:1.84631753;stroke-linecap:round;stroke-linejoin:round;stroke-miterlimit:4;stroke-dasharray:none;stroke-opacity:1"
         d="m 791.90391,607.00492 -58.01838,0" /><path
         inkscape:connector-curvature="0"
         id="path3484"
         style="fill:#a66900;fill-opacity:1;stroke:#000000;stroke-width:1.84631753;stroke-linecap:round;stroke-linejoin:round;stroke-miterlimit:4;stroke-dasharray:none;stroke-opacity:1"
         d="m 724.6648,591.24631 c 4.35612,0 81.3209,0 86.52087,0 5.19635,0 5.53172,-2.34756 5.53172,-5.03048 0,-5.03048 0,-63.37345 0,-71.75757 0,-6.03658 -5.19635,-16.77912 -15.59274,-16.77912" /><path
         inkscape:connector-curvature="0"
         id="path3486"
         style="fill:#a66900;fill-opacity:1;stroke:#000000;stroke-width:1.84631753;stroke-linecap:round;stroke-linejoin:round;stroke-miterlimit:4;stroke-dasharray:none;stroke-opacity:1"
         d="m 816.71739,574.81334 -93.89891,0" /><path
         inkscape:connector-curvature="0"
         id="path3488"
         style="fill:#a66900;fill-opacity:1;stroke:#000000;stroke-width:1.84631753;stroke-linecap:round;stroke-linejoin:round;stroke-miterlimit:4;stroke-dasharray:none;stroke-opacity:1"
         d="m 931.01242,514.45826 0,48.199 c 0,0.75005 -0.60929,1.3631 -1.36317,1.3631 l -7.46097,0 c -0.75367,0 -1.3631,-0.61298 -1.3631,-1.3631 l 0,-48.199" /><path
         inkscape:connector-curvature="0"
         id="path3490"
         style="fill:#a66900;fill-opacity:1;stroke:#000000;stroke-width:1.84631753;stroke-linecap:round;stroke-linejoin:round;stroke-miterlimit:4;stroke-dasharray:none;stroke-opacity:1"
         d="m 811.01618,598.28897 -77.80138,0" /><path
         inkscape:connector-curvature="0"
         id="path3492"
         style="fill:#a66900;fill-opacity:1;stroke:#000000;stroke-width:1.84631753;stroke-linecap:round;stroke-linejoin:round;stroke-miterlimit:4;stroke-dasharray:none;stroke-opacity:1"
         d="m 836.77807,514.45826 0,48.199 c 0,0.75005 -0.60928,1.3631 -1.3631,1.3631 l -7.46097,0 c -0.75374,0 -1.36317,-0.61298 -1.36317,-1.3631 l 0,-48.199" /><path
         inkscape:connector-curvature="0"
         id="path3494"
         style="fill:#a66900;fill-opacity:1;stroke:#000000;stroke-width:1.84631753;stroke-linecap:round;stroke-linejoin:round;stroke-miterlimit:4;stroke-dasharray:none;stroke-opacity:1"
         d="m 816.71739,564.02036 -6.87318,0 c -0.75366,0 -1.3631,-0.61298 -1.3631,-1.3631 l 0,-48.199" /><path
         inkscape:connector-curvature="0"
         id="path3496"
         style="fill:#a66900;fill-opacity:1;stroke:#000000;stroke-width:1.84631753;stroke-linecap:round;stroke-linejoin:round;stroke-miterlimit:4;stroke-dasharray:none;stroke-opacity:1"
         d="m 786.34694,514.45826 0,48.199 c 0,0.75005 0.60929,1.3631 1.3631,1.3631 l 7.46097,0 c 0.75367,0 1.3631,-0.61298 1.3631,-1.3631 l 0,-48.199" /><path
         inkscape:connector-curvature="0"
         id="path3498"
         style="fill:#a66900;fill-opacity:1;stroke:#000000;stroke-width:1.84631753;stroke-linecap:round;stroke-linejoin:round;stroke-miterlimit:4;stroke-dasharray:none;stroke-opacity:1"
         d="m 764.21277,514.45826 0,48.199 c 0,0.75005 0.60929,1.3631 1.3631,1.3631 l 7.46097,0 c 0.75367,0 1.36672,-0.61298 1.36672,-1.3631 l 0,-48.199" /><path
         inkscape:connector-curvature="0"
         id="path3500"
         style="fill:#a66900;fill-opacity:1;stroke:#000000;stroke-width:1.84631753;stroke-linecap:round;stroke-linejoin:round;stroke-miterlimit:4;stroke-dasharray:none;stroke-opacity:1"
         d="m 742.0786,514.45826 0,48.199 c 0,0.75005 0.60928,1.3631 1.3631,1.3631 l 7.46459,0 c 0.75004,0 1.3631,-0.61298 1.3631,-1.3631 l 0,-48.199" /><path
         inkscape:connector-curvature="0"
         id="path3502"
         style="fill:#a66900;fill-opacity:1;stroke:#000000;stroke-width:1.84631753;stroke-linecap:round;stroke-linejoin:round;stroke-miterlimit:4;stroke-dasharray:none;stroke-opacity:1"
         d="m 730.13521,514.45826 0,48.199 c 0,0.75005 -0.60928,1.3631 -1.36309,1.3631 l -5.95364,0" /><path
         inkscape:connector-curvature="0"
         id="path3504"
         style="fill:#a66900;fill-opacity:1;fill-rule:nonzero;stroke:#000000;stroke-width:1.84631753;stroke-linecap:round;stroke-linejoin:round;stroke-miterlimit:4;stroke-dasharray:none;stroke-opacity:1"
         d="m 733.38067,597.28288 0,81.15503 c 0,-1.67682 -9.89146,-6.37193 -9.89146,-10.56219 l -14.07463,0 c 0,3.04354 0,6.62437 0,9.67153 2.8344,0 5.69043,2.56749 6.26744,4.77081 0.28507,1.08187 -0.32791,1.52181 -1.30542,0.8691 -0.97729,-0.65286 -6.39358,-2.98587 -7.28793,-1.30542 -0.43647,0.81496 -0.55168,0.98807 1.61552,2.48462 1.57587,1.08542 7.17612,4.95116 8.26516,5.70845 1.92925,1.34146 -1.4388,5.50646 -2.97501,4.47872 -1.90762,-1.27654 -4.67348,-3.2058 -6.75782,-4.61941 -1.53259,-1.04575 -3.54116,-2.30428 -4.28759,-0.18759 -1.0061,2.85965 -4.028,5.41636 -7.61606,5.41636 l -91.91567,0 c -3.58799,0 -6.60989,-2.55671 -7.61606,-5.41636 -0.74643,-2.11676 -2.755,-0.85824 -4.28759,0.18759 -2.08435,1.41361 -4.85021,3.34287 -6.75782,4.61941 -1.53621,1.02774 -4.90426,-3.13726 -2.97863,-4.47872 1.09265,-0.75729 6.6929,-4.62303 8.26877,-5.70845 2.16728,-1.49655 2.05185,-1.66966 1.61553,-2.48462 -0.89436,-1.68045 -6.31064,0.65286 -7.28793,1.30542 -0.97722,0.65286 -1.59027,0.21269 -1.30542,-0.8691 0.57679,-2.20332 3.42942,-4.77081 6.26743,-4.77081 0,-3.04716 0,-6.7542 0,-9.79774 l -14.74535,0 c 0,4.19025 -9.22073,9.01158 -9.22073,10.6884 l 0,-81.15503 168.01127,0 z" /><path
         inkscape:connector-curvature="0"
         id="path3506"
         style="fill:#a66900;fill-opacity:1;fill-rule:nonzero;stroke:#000000;stroke-width:1.84631753;stroke-linecap:round;stroke-linejoin:round;stroke-miterlimit:4;stroke-dasharray:none;stroke-opacity:1"
         d="m 674.4536,820.29425 c 0,-5.03047 -2.10598,-5.36584 -2.10598,-9.39022 0,-4.19033 4.60855,-3.38976 5.7012,-0.83668 0.50146,1.17205 4.02446,1.84278 4.02446,-3.01828 0,-4.19388 -4.86468,-7.37803 -4.86468,-12.91337 0,-4.52562 2.51705,-3.68901 4.02446,-0.67058 1.51095,3.01829 8.21825,7.88289 8.21825,0.16912 0,-2.34755 1.0061,-6.87687 -2.34755,-10.39639 -3.35365,-3.52314 -3.01829,-6.18804 -3.01829,-9.05486 0,-3.18778 2.41602,-5.6868 5.19635,0.33529 1.0061,2.17807 7.7134,6.53781 7.7134,-0.50515 0,-2.84879 0,-6.53788 0,-8.71957 0,-4.35974 -5.86708,-6.03295 -5.86708,-10.05733 0,-1.84632 0,-5.03048 0,-7.04267 0,-2.01226 2.1528,-4.09653 3.35365,-1.51095 2.17806,4.69511 9.3903,8.21463 9.3903,1.84632 0,-1.84632 0,-5.36592 0,-6.87687 0,-1.50734 0.50146,-3.01829 -3.68909,-6.37194 -4.19388,-3.35365 -7.37804,-8.71949 -7.37804,-11.73785 0,-3.01829 0,-5.03048 0,-6.7073 0,-1.67683 2.68292,-3.68902 5.36585,1.51095 2.68292,5.19635 5.70128,2.68292 5.70128,-1.0061 0,-3.68901 0.8366,-6.37193 -3.85859,-10.23044 -4.69511,-3.85497 -4.19025,-6.87325 -4.19025,-10.72814 0,-3.52314 0,-16.26709 0,-19.28538 0,-3.01828 1.00609,-4.02438 -2.51705,-4.02438 l -87.86234,0 c -3.52314,0 -2.51704,1.0061 -2.51704,4.02438 0,3.01829 0,15.76224 0,19.28538 0,3.85489 0.50515,6.87317 -4.19026,10.72814 -4.69518,3.85851 -3.85858,6.54143 -3.85858,10.23044 0,3.68902 3.01836,6.20245 5.70128,1.0061 2.68292,-5.19997 5.36584,-3.18778 5.36584,-1.51095 0,1.67682 0,3.68901 0,6.7073 0,3.01836 -3.18416,8.3842 -7.37803,11.73785 -4.19033,3.35365 -3.68909,4.8646 -3.68909,6.37194 0,1.51095 0,5.03055 0,6.87687 0,6.36831 7.21223,2.84879 9.3903,-1.84632 1.20084,-2.58558 3.35365,-0.50146 3.35365,1.51095 0,2.01219 0,5.19635 0,7.04267 0,4.02438 -5.86708,5.69759 -5.86708,10.05733 0,2.18169 0,5.87078 0,8.71957 0,7.04267 6.7073,2.68292 7.7134,0.50515 2.77671,-6.02217 5.19635,-3.52314 5.19635,-0.33529 0,2.86682 0.33529,5.53172 -3.01829,9.05486 -3.35365,3.51952 -2.34756,8.04884 -2.34756,10.39639 0,7.7134 6.70731,2.8488 8.21826,-0.16912 1.50741,-3.01829 4.02445,-3.85489 4.02445,0.67058 0,5.53534 -4.8646,8.71949 -4.8646,12.91337 0,4.86106 3.52314,4.19033 4.02438,3.01828 1.09265,-2.55308 5.70121,-3.35365 5.70121,0.83668 0,4.02438 -2.10598,4.35975 -2.10598,9.39022 l 50.15713,0 z" /><path
         inkscape:connector-curvature="0"
         id="path3508"
         style="fill:#a66900;fill-opacity:1;fill-rule:nonzero;stroke:#000000;stroke-width:1.84631753;stroke-linecap:round;stroke-linejoin:round;stroke-miterlimit:4;stroke-dasharray:none;stroke-opacity:1"
         d="m 675.19641,803.52593 -51.64276,0" /><path
         inkscape:connector-curvature="0"
         id="path3510"
         style="fill:#a66900;fill-opacity:1;fill-rule:nonzero;stroke:#000000;stroke-width:1.84631753;stroke-linecap:round;stroke-linejoin:round;stroke-miterlimit:4;stroke-dasharray:none;stroke-opacity:1"
         d="m 681.90379,786.25636 -65.05751,0" /><path
         inkscape:connector-curvature="0"
         id="path3512"
         style="fill:#a66900;fill-opacity:1;fill-rule:nonzero;stroke:#000000;stroke-width:1.84631753;stroke-linecap:round;stroke-linejoin:round;stroke-miterlimit:4;stroke-dasharray:none;stroke-opacity:1"
         d="m 688.94646,766.30387 -79.14285,0" /><path
         inkscape:connector-curvature="0"
         id="path3514"
         style="fill:#a66900;fill-opacity:1;fill-rule:nonzero;stroke:#000000;stroke-width:1.84631753;stroke-linecap:round;stroke-linejoin:round;stroke-miterlimit:4;stroke-dasharray:none;stroke-opacity:1"
         d="m 692.97084,738.13312 -87.19161,0" /><path
         inkscape:connector-curvature="0"
         id="path3516"
         style="fill:#a66900;fill-opacity:1;fill-rule:nonzero;stroke:#000000;stroke-width:1.84631753;stroke-linecap:round;stroke-linejoin:round;stroke-miterlimit:4;stroke-dasharray:none;stroke-opacity:1"
         d="m 691.29401,708.62092 -83.83795,0" /><path
         inkscape:connector-curvature="0"
         id="path3518"
         style="fill:#a66900;fill-opacity:1;fill-rule:nonzero;stroke:#000000;stroke-width:1.84631753;stroke-linecap:round;stroke-linejoin:round;stroke-miterlimit:4;stroke-dasharray:none;stroke-opacity:1"
         d="m 676.87324,623.27201 0,-31.01961 -54.99641,0 0,31.01961 54.99641,0 z" /><path
         inkscape:connector-curvature="0"
         id="path3520"
         style="fill:#a66900;fill-opacity:1;fill-rule:nonzero;stroke:#000000;stroke-width:1.84631753;stroke-linecap:round;stroke-linejoin:round;stroke-miterlimit:4;stroke-dasharray:none;stroke-opacity:1"
         d="m 581.7771,690.07481 c 1.92926,-1.33792 4.51846,3.46184 2.97863,4.47872 -1.54337,1.01695 -4.90426,-3.13726 -2.97863,-4.47872 z" /><path
         inkscape:connector-curvature="0"
         id="path3522"
         style="fill:#a66900;fill-opacity:1;fill-rule:nonzero;stroke:#000000;stroke-width:1.84631753;stroke-linecap:round;stroke-linejoin:round;stroke-miterlimit:4;stroke-dasharray:none;stroke-opacity:1"
         d="m 716.96935,690.07481 c -1.92564,-1.33792 -4.51477,3.46184 -2.97501,4.47872 1.54344,1.01695 4.90426,-3.13726 2.97501,-4.47872 z" /><path
         inkscape:connector-curvature="0"
         id="path3524"
         style="fill:#a66900;fill-opacity:1;stroke:#000000;stroke-width:1.84631753;stroke-linecap:round;stroke-linejoin:round;stroke-miterlimit:4;stroke-dasharray:none;stroke-opacity:1"
         d="m 574.59013,667.74951 0,-50.0129" /><path
         inkscape:connector-curvature="0"
         id="path3526"
         style="fill:#a66900;fill-opacity:1;stroke:#000000;stroke-width:1.84631753;stroke-linecap:round;stroke-linejoin:round;stroke-miterlimit:4;stroke-dasharray:none;stroke-opacity:1"
         d="m 621.87683,607.34029 -42.09028,0 c -0.67058,3.8585 -4.02438,13.91953 -14.41715,13.91953" /><path
         inkscape:connector-curvature="0"
         id="path3528"
         style="fill:#a66900;fill-opacity:1;stroke:#000000;stroke-width:1.84631753;stroke-linecap:round;stroke-linejoin:round;stroke-miterlimit:4;stroke-dasharray:none;stroke-opacity:1"
         d="m 574.59013,623.27201 42.25615,0" /><path
         inkscape:connector-curvature="0"
         id="path3530"
         style="fill:#a66900;fill-opacity:1;stroke:#000000;stroke-width:1.84631753;stroke-linecap:round;stroke-linejoin:round;stroke-miterlimit:4;stroke-dasharray:none;stroke-opacity:1"
         d="m 582.97433,667.74951 0,-32.23848" /><path
         inkscape:connector-curvature="0"
         id="path3532"
         style="fill:#a66900;fill-opacity:1;stroke:#000000;stroke-width:1.84631753;stroke-linecap:round;stroke-linejoin:round;stroke-miterlimit:4;stroke-dasharray:none;stroke-opacity:1"
         d="m 595.38284,686.15138 0,-55.0001 c 5.03055,-2.68292 13.07931,-10.73168 13.41468,-16.43296 3.85489,-0.33529 8.71949,-0.33529 13.07931,-1.8427" /><path
         inkscape:connector-curvature="0"
         id="path3534"
         style="fill:#a66900;fill-opacity:1;stroke:#000000;stroke-width:1.84631753;stroke-linecap:round;stroke-linejoin:round;stroke-miterlimit:4;stroke-dasharray:none;stroke-opacity:1"
         d="m 595.38284,631.15128 21.29402,0" /><path
         inkscape:connector-curvature="0"
         id="path3536"
         style="fill:#a66900;fill-opacity:1;stroke:#000000;stroke-width:1.84631753;stroke-linecap:round;stroke-linejoin:round;stroke-miterlimit:4;stroke-dasharray:none;stroke-opacity:1"
         d="m 595.38284,646.24279 c 5.53179,-1.67683 12.90982,-5.53179 14.92201,-15.09151" /><path
         inkscape:connector-curvature="0"
         id="path3538"
         style="fill:#a66900;fill-opacity:1;fill-rule:nonzero;stroke:#000000;stroke-width:1.84631753;stroke-linecap:round;stroke-linejoin:round;stroke-miterlimit:4;stroke-dasharray:none;stroke-opacity:1"
         d="m 669.4952,497.67914 0,-129.11246 -40.24034,0 0,129.11246 40.24034,0 z" /><path
         inkscape:connector-curvature="0"
         id="path3540"
         style="fill:#a66900;fill-opacity:1;fill-rule:nonzero;stroke:#000000;stroke-width:1.84631753;stroke-linecap:round;stroke-linejoin:round;stroke-miterlimit:4;stroke-dasharray:none;stroke-opacity:1"
         d="m 662.11717,497.67914 0,-129.11246 -25.48428,0 0,129.11246 25.48428,0 z" /><path
         inkscape:connector-curvature="0"
         id="path3542"
         style="fill:#a66900;fill-opacity:1;fill-rule:nonzero;stroke:#000000;stroke-width:1.84631753;stroke-linecap:round;stroke-linejoin:round;stroke-miterlimit:4;stroke-dasharray:none;stroke-opacity:1"
         d="m 662.11717,497.67914 0,94.57326 -25.48428,0 0,-94.57326 25.48428,0 z" /><path
         inkscape:connector-curvature="0"
         id="path3544"
         style="fill:#a66900;fill-opacity:1;stroke:#000000;stroke-width:1.84631753;stroke-linecap:round;stroke-linejoin:round;stroke-miterlimit:4;stroke-dasharray:none;stroke-opacity:1"
         d="m 621.87683,592.2524 c 4.19025,-2.51705 5.53171,-5.8707 5.53171,-15.0915 0,-4.69511 0,-57.3368 0,-62.70264 0,-6.87318 -6.53781,-16.77912 -12.74394,-16.77912" /><path
         inkscape:connector-curvature="0"
         id="path3546"
         style="fill:#a66900;fill-opacity:1;stroke:#000000;stroke-width:1.84631753;stroke-linecap:round;stroke-linejoin:round;stroke-miterlimit:4;stroke-dasharray:none;stroke-opacity:1"
         d="m 565.3694,597.28288 c 9.89146,-3.01829 10.56226,-9.39022 10.56226,-16.09753 0,-6.70737 0,-60.01979 0,-66.72709 0,-6.70731 -6.20614,-16.77912 -18.44515,-16.77912" /><path
         inkscape:connector-curvature="0"
         id="path3548"
         style="fill:#a66900;fill-opacity:1;stroke:#000000;stroke-width:1.84631753;stroke-linecap:round;stroke-linejoin:round;stroke-miterlimit:4;stroke-dasharray:none;stroke-opacity:1"
         d="m 592.69992,607.34029 c 6.03664,0 14.92201,-6.03303 14.92201,-15.59275 0,-9.55609 0,-71.25271 0,-77.28928 0,-7.54398 -9.5561,-16.77912 -19.45125,-16.77912" /><path
         inkscape:connector-curvature="0"
         id="path3550"
         style="fill:#a66900;fill-opacity:1;stroke:#000000;stroke-width:1.84631753;stroke-linecap:round;stroke-linejoin:round;stroke-miterlimit:4;stroke-dasharray:none;stroke-opacity:1"
         d="m 597.4564,514.45826 0,48.199 c 0,0.75005 0.60928,1.3631 1.3631,1.3631 l 8.80243,0" /><path
         inkscape:connector-curvature="0"
         id="path3552"
         style="fill:#a66900;fill-opacity:1;stroke:#000000;stroke-width:1.84631753;stroke-linecap:round;stroke-linejoin:round;stroke-miterlimit:4;stroke-dasharray:none;stroke-opacity:1"
         d="m 617.40889,514.45826 0,48.199 c 0,0.75005 0.61298,1.3631 1.36664,1.3631 l 2.26108,0" /><path
         inkscape:connector-curvature="0"
         id="path3554"
         style="fill:#a66900;fill-opacity:1;stroke:#000000;stroke-width:1.84631753;stroke-linecap:round;stroke-linejoin:round;stroke-miterlimit:4;stroke-dasharray:none;stroke-opacity:1"
         d="m 724.15994,667.74951 0,-50.0129" /><path
         inkscape:connector-curvature="0"
         id="path3556"
         style="fill:#a66900;fill-opacity:1;stroke:#000000;stroke-width:1.84631753;stroke-linecap:round;stroke-linejoin:round;stroke-miterlimit:4;stroke-dasharray:none;stroke-opacity:1"
         d="m 676.87324,607.34029 42.08666,0 c 0.67058,3.8585 4.02445,13.91953 14.42077,13.91953" /><path
         inkscape:connector-curvature="0"
         id="path3558"
         style="fill:#a66900;fill-opacity:1;stroke:#000000;stroke-width:1.84631753;stroke-linecap:round;stroke-linejoin:round;stroke-miterlimit:4;stroke-dasharray:none;stroke-opacity:1"
         d="m 715.77574,667.74951 0,-32.23848" /><path
         inkscape:connector-curvature="0"
         id="path3560"
         style="fill:#a66900;fill-opacity:1;stroke:#000000;stroke-width:1.84631753;stroke-linecap:round;stroke-linejoin:round;stroke-miterlimit:4;stroke-dasharray:none;stroke-opacity:1"
         d="m 703.36723,686.15138 0,-55.0001 c -5.03055,-2.68292 -13.07931,-10.73168 -13.41468,-16.43296 -3.85489,-0.33529 -8.71949,-0.33529 -13.07931,-1.8427" /><path
         inkscape:connector-curvature="0"
         id="path3562"
         style="fill:#a66900;fill-opacity:1;stroke:#000000;stroke-width:1.84631753;stroke-linecap:round;stroke-linejoin:round;stroke-miterlimit:4;stroke-dasharray:none;stroke-opacity:1"
         d="m 703.36723,631.15128 -21.29395,0" /><path
         inkscape:connector-curvature="0"
         id="path3564"
         style="fill:#a66900;fill-opacity:1;stroke:#000000;stroke-width:1.84631753;stroke-linecap:round;stroke-linejoin:round;stroke-miterlimit:4;stroke-dasharray:none;stroke-opacity:1"
         d="m 703.36723,646.24279 c -5.53179,-1.67683 -12.90982,-5.53179 -14.92201,-15.09151" /><path
         inkscape:connector-curvature="0"
         id="path3566"
         style="fill:#a66900;fill-opacity:1;stroke:#000000;stroke-width:1.84631753;stroke-linecap:round;stroke-linejoin:round;stroke-miterlimit:4;stroke-dasharray:none;stroke-opacity:1"
         d="m 676.87324,592.2524 c -4.19026,-2.51705 -5.53172,-5.8707 -5.53172,-15.0915 0,-4.69511 0,-57.3368 0,-62.70264 0,-6.87318 6.53781,-16.77912 12.74395,-16.77912" /><path
         inkscape:connector-curvature="0"
         id="path3568"
         style="fill:#a66900;fill-opacity:1;stroke:#000000;stroke-width:1.84631753;stroke-linecap:round;stroke-linejoin:round;stroke-miterlimit:4;stroke-dasharray:none;stroke-opacity:1"
         d="m 706.05015,607.34029 c -6.03665,0 -14.92201,-6.03303 -14.92201,-15.59275 0,-9.55609 0,-71.25271 0,-77.28928 0,-7.54398 9.55617,-16.77912 19.45125,-16.77912" /><path
         inkscape:connector-curvature="0"
         id="path3570"
         style="fill:#a66900;fill-opacity:1;stroke:#000000;stroke-width:1.84631753;stroke-linecap:round;stroke-linejoin:round;stroke-miterlimit:4;stroke-dasharray:none;stroke-opacity:1"
         d="m 701.29367,514.45826 0,48.199 c 0,0.75005 -0.60929,1.3631 -1.3631,1.3631 l -8.80243,0" /><path
         inkscape:connector-curvature="0"
         id="path3572"
         style="fill:#a66900;fill-opacity:1;stroke:#000000;stroke-width:1.84631753;stroke-linecap:round;stroke-linejoin:round;stroke-miterlimit:4;stroke-dasharray:none;stroke-opacity:1"
         d="m 681.34118,514.45826 0,48.199 c 0,0.75005 -0.61298,1.3631 -1.36665,1.3631 l -2.26107,0" /><path
         inkscape:connector-curvature="0"
         id="path3574"
         style="fill:#a66900;fill-opacity:1;stroke:#000000;stroke-width:1.84631753;stroke-linecap:round;stroke-linejoin:round;stroke-miterlimit:4;stroke-dasharray:none;stroke-opacity:1"
         d="m 733.38067,597.28288 c -9.89146,-3.01829 -10.56219,-9.39022 -10.56219,-16.09753 0,-6.70737 0,-60.01979 0,-66.72709 0,-6.70731 6.20244,-16.77912 18.44508,-16.77912" /><path
         inkscape:connector-curvature="0"
         id="path3576"
         style="fill:#a66900;fill-opacity:1;fill-rule:nonzero;stroke:#000000;stroke-width:1.84631753;stroke-linecap:round;stroke-linejoin:round;stroke-miterlimit:4;stroke-dasharray:none;stroke-opacity:1"
         d="m 674.4536,820.29425 c 4.53286,0 4.37053,10.52261 0,10.52261 l -50.15713,0 c -4.37053,0 -4.53286,-10.52261 0,-10.52261 l 50.15713,0 z" /><path
         inkscape:connector-curvature="0"
         id="path3578"
         style="fill:#a66900;fill-opacity:1;fill-rule:nonzero;stroke:#000000;stroke-width:1.84631753;stroke-linecap:round;stroke-linejoin:round;stroke-miterlimit:4;stroke-dasharray:none;stroke-opacity:1"
         d="m 668.57566,830.81686 c 3.15174,0 3.15174,1.20077 0.85825,4.06766 -2.2935,2.86681 -2.19971,3.44021 -6.30702,3.44021 l -27.50371,0 c -4.11094,0 -4.01352,-0.5731 -6.30702,-3.44021 -2.29704,-2.86689 -2.29704,-4.06766 0.85824,-4.06766 l 38.40126,0 z" /><path
         inkscape:connector-curvature="0"
         id="path3580"
         style="fill:#a66900;fill-opacity:1;fill-rule:nonzero;stroke:#000000;stroke-width:1.84631753;stroke-linecap:round;stroke-linejoin:round;stroke-miterlimit:4;stroke-dasharray:none;stroke-opacity:1"
         d="m 663.12689,838.32473 c 3.15166,0 3.15166,1.24405 0.85824,4.11093 -2.2935,2.86682 -2.1997,3.43659 -6.3071,3.43659 l -16.606,0 c -4.11093,0 -4.0136,-0.5694 -6.30709,-3.43659 -2.29342,-2.86688 -2.29342,-4.11093 0.85824,-4.11093 l 27.50371,0 z" /><path
         inkscape:connector-curvature="0"
         id="path3582"
         style="fill:#a66900;fill-opacity:1;fill-rule:nonzero;stroke:#000000;stroke-width:1.84631753;stroke-linecap:round;stroke-linejoin:round;stroke-miterlimit:4;stroke-dasharray:none;stroke-opacity:1"
         d="m 655.4098,845.87225 c 0,4.02438 1.00609,14.07817 -6.03658,14.07817 -7.04266,0 -6.03295,-10.05379 -6.03295,-14.07817 l 12.06953,0 z" /><path
         inkscape:connector-curvature="0"
         id="path3584"
         style="fill:#a66900;fill-opacity:1;fill-rule:nonzero;stroke:#000000;stroke-width:1.84631753;stroke-linecap:round;stroke-linejoin:round;stroke-miterlimit:4;stroke-dasharray:none;stroke-opacity:1"
         d="m 422.50334,725.38918 c 1.42802,2.34763 4.11094,4.44275 6.70738,5.03055 l 0,7.71339 c -2.0122,-0.16912 -3.60254,-1.34146 -4.19033,-2.34755 l -0.84023,0 c -0.58786,1.67682 -3.43658,5.61465 -5.53171,6.87317 -2.09513,-1.25852 -4.94754,-5.19635 -5.53533,-6.87317 l -0.83661,0 c -0.58786,1.00609 -2.18168,2.17806 -4.19033,2.34755 l 0,-7.71339 c 2.59644,-0.58787 5.27936,-2.68292 6.70738,-5.03055 l 7.70978,0 z" /><path
         inkscape:connector-curvature="0"
         id="path3586"
         style="fill:#a66900;fill-opacity:1;fill-rule:nonzero;stroke:#000000;stroke-width:1.84631753;stroke-linecap:round;stroke-linejoin:round;stroke-miterlimit:4;stroke-dasharray:none;stroke-opacity:1"
         d="m 425.02039,708.62092 c 1.17197,3.51953 3.60608,5.70121 6.28907,7.37803 l 0,9.55617 c -2.51705,-0.16616 -4.32016,-2.30435 -4.86468,-3.85496 l -0.92315,0 c -0.58418,5.27936 -4.77805,8.46714 -6.87318,10.06103 -2.09513,-1.59389 -6.289,-4.78167 -6.87679,-10.06103 l -0.91954,0 c -0.5443,1.55061 -2.34756,3.68902 -4.86468,3.85496 l 0,-9.55617 c 2.68299,-1.67682 5.1171,-3.8585 6.28907,-7.37803 l 12.74388,0 z" /><path
         inkscape:connector-curvature="0"
         id="path3588"
         style="fill:#a66900;fill-opacity:1;fill-rule:nonzero;stroke:#000000;stroke-width:1.84631753;stroke-linecap:round;stroke-linejoin:round;stroke-miterlimit:4;stroke-dasharray:none;stroke-opacity:1"
         d="m 427.53389,692.35383 c 1.34146,3.77557 5.36584,7.63046 9.22435,9.55971 l 0,8.71957 c -2.34756,-0.16912 -5.44878,-2.93535 -6.62437,-4.52924 l -0.83667,0 c -1.0061,3.27072 -6.03658,11.65485 -10.64875,13.74997 -4.61218,-2.09512 -9.64265,-10.47925 -10.64875,-13.74997 l -0.83667,0 c -1.17559,1.59389 -4.27681,4.35975 -6.62437,4.52924 l 0,-8.71957 c 3.85851,-1.92925 7.87934,-5.78414 9.2208,-9.55971 l 17.77443,0 z" /><path
         inkscape:connector-curvature="0"
         id="path3590"
         style="fill:#a66900;fill-opacity:1;fill-rule:nonzero;stroke:#000000;stroke-width:1.84631753;stroke-linecap:round;stroke-linejoin:round;stroke-miterlimit:4;stroke-dasharray:none;stroke-opacity:1"
         d="m 431.3924,670.22328 c 0.75366,4.35974 4.44268,10.89755 8.71949,14.41715 l 0,10.06096 c -2.85241,-0.16617 -7.21216,-2.26101 -8.38413,-5.02686 l -1.00609,0 c -0.67058,9.05124 -7.6702,15.63594 -12.07322,19.28176 -4.40302,-3.64582 -11.40249,-10.23052 -12.07322,-19.28176 l -1.00609,0 c -1.17197,2.76585 -5.53172,4.86098 -8.38413,5.02686 l 0,-10.06096 c 4.27681,-3.5196 7.96582,-10.05741 8.71949,-14.41715 l 25.4879,0 z" /><path
         inkscape:connector-curvature="0"
         id="path3592"
         style="fill:#a66900;fill-opacity:1;fill-rule:nonzero;stroke:#000000;stroke-width:1.84631753;stroke-linecap:round;stroke-linejoin:round;stroke-miterlimit:4;stroke-dasharray:none;stroke-opacity:1"
         d="m 437.59484,631.99151 c 0,13.66348 3.85851,20.28785 8.88899,21.29395 l 0,17.10369 c -4.19388,-0.50515 -8.38413,-4.52562 -9.72559,-8.21471 l -1.17559,0 c -0.67058,13.24519 -9.72566,25.65377 -16.9342,31.85622 -7.20854,-6.20245 -16.26709,-18.61103 -16.93782,-31.85622 l -1.17197,0 c -1.34146,3.68909 -5.53533,7.70985 -9.72559,8.21471 l 0,-17.10369 c 5.03048,-1.0061 8.88537,-7.63047 8.88537,-21.29395 l 37.8964,0 z" /><path
         inkscape:connector-curvature="0"
         id="path3594"
         style="fill:#a66900;fill-opacity:1;fill-rule:nonzero;stroke:#000000;stroke-width:1.84631753;stroke-linecap:round;stroke-linejoin:round;stroke-miterlimit:4;stroke-dasharray:none;stroke-opacity:1"
         d="m 436.42287,610.02321 c 0.16617,6.87679 3.01829,16.76833 11.56829,18.44515 l 0,16.93782 c -5.53171,-0.33529 -11.23292,-4.02445 -11.73778,-12.24271 l -1.50733,0 c -0.0443,12.24271 -7.04274,27.16465 -16.0976,34.04152 -9.05486,-6.87687 -16.05432,-21.79881 -16.0976,-34.04152 l -1.50733,0 c -0.50516,8.21826 -6.20607,11.90735 -11.73778,12.24271 l 0,-16.93782 c 8.55,-1.67682 11.40241,-11.56836 11.56828,-18.44515 l 35.54885,0 z" /><path
         inkscape:connector-curvature="0"
         id="path3596"
         style="fill:#a66900;fill-opacity:1;fill-rule:nonzero;stroke:#000000;stroke-width:1.84631753;stroke-linecap:round;stroke-linejoin:round;stroke-miterlimit:4;stroke-dasharray:none;stroke-opacity:1"
         d="m 441.45335,598.28897 c -1.34146,21.29395 -13.91946,35.20987 -22.8049,41.7513 -8.88899,-6.54143 -21.46344,-20.45735 -22.8049,-41.7513 l 45.6098,0 z" /><path
         inkscape:connector-curvature="0"
         id="path3598"
         style="fill:#a66900;fill-opacity:1;fill-rule:nonzero;stroke:#000000;stroke-width:1.84631753;stroke-linecap:round;stroke-linejoin:round;stroke-miterlimit:4;stroke-dasharray:none;stroke-opacity:1"
         d="m 447.82529,591.21027 0,19.98852 c -9.05486,-1.34146 -12.578,-7.21215 -14.25483,-11.73785 l -1.8427,0 c -1.00609,8.71957 -7.71347,22.80498 -13.07931,28.00133 -5.36584,-5.19635 -12.07322,-19.28176 -13.07931,-28.00133 l -1.8427,0 c -1.67683,4.5257 -5.19997,10.39639 -14.25483,11.73785 l 0,-19.98852 58.35368,0 z" /><path
         inkscape:connector-curvature="0"
         id="path3600"
         style="fill:#a66900;fill-opacity:1;fill-rule:nonzero;stroke:#000000;stroke-width:1.84631753;stroke-linecap:round;stroke-linejoin:round;stroke-miterlimit:4;stroke-dasharray:none;stroke-opacity:1"
         d="m 883.95651,725.38918 c 1.42801,2.34763 4.11093,4.44275 6.70737,5.03055 l 0,7.71339 c -2.01219,-0.16912 -3.60253,-1.34146 -4.19033,-2.34755 l -0.84022,0 c -0.58417,1.67682 -3.43659,5.61465 -5.53171,6.87317 -2.09513,-1.25852 -4.94754,-5.19635 -5.53172,-6.87317 l -0.84022,0 c -0.58787,1.00609 -2.17806,2.17806 -4.19387,2.34755 l 0,-7.71339 c 2.59998,-0.58787 5.2829,-2.68292 6.7073,-5.03055 l 7.7134,0 z" /><path
         inkscape:connector-curvature="0"
         id="path3602"
         style="fill:#a66900;fill-opacity:1;fill-rule:nonzero;stroke:#000000;stroke-width:1.84631753;stroke-linecap:round;stroke-linejoin:round;stroke-miterlimit:4;stroke-dasharray:none;stroke-opacity:1"
         d="m 886.47355,708.62092 c 1.17197,3.51953 3.60608,5.70121 6.28908,7.37803 l 0,9.55617 c -2.51705,-0.16616 -4.32016,-2.30435 -4.86468,-3.85496 l -0.92316,0 c -0.58417,5.27936 -4.77805,8.46714 -6.87317,10.06103 -2.09513,-1.59389 -6.289,-4.78167 -6.87318,-10.06103 l -0.92316,0 c -0.54429,1.55061 -2.34755,3.68902 -4.86467,3.85496 l 0,-9.55617 c 2.68299,-1.67682 5.1171,-3.8585 6.28907,-7.37803 l 12.74387,0 z" /><path
         inkscape:connector-curvature="0"
         id="path3604"
         style="fill:#a66900;fill-opacity:1;fill-rule:nonzero;stroke:#000000;stroke-width:1.84631753;stroke-linecap:round;stroke-linejoin:round;stroke-miterlimit:4;stroke-dasharray:none;stroke-opacity:1"
         d="m 888.98706,692.35383 c 1.34146,3.77557 5.36584,7.63046 9.22435,9.55971 l 0,8.71957 c -2.34756,-0.16912 -5.44878,-2.93535 -6.62437,-4.52924 l -0.83668,0 c -1.00609,3.27072 -6.03657,11.65485 -10.64874,13.74997 -4.61218,-2.09512 -9.64265,-10.47925 -10.64875,-13.74997 l -0.83668,0 c -1.17558,1.59389 -4.27681,4.35975 -6.62436,4.52924 l 0,-8.71957 c 3.8585,-1.92925 7.88289,-5.78414 9.22442,-9.55971 l 17.77081,0 z" /><path
         inkscape:connector-curvature="0"
         id="path3606"
         style="fill:#a66900;fill-opacity:1;fill-rule:nonzero;stroke:#000000;stroke-width:1.84631753;stroke-linecap:round;stroke-linejoin:round;stroke-miterlimit:4;stroke-dasharray:none;stroke-opacity:1"
         d="m 892.84557,670.22328 c 0.75366,4.35974 4.44268,10.89755 8.71949,14.41715 l 0,10.06096 c -2.85241,-0.16617 -7.21216,-2.26101 -8.38413,-5.02686 l -1.0061,0 c -0.67058,9.05124 -7.67019,15.63594 -12.07321,19.28176 -4.40303,-3.64582 -11.40242,-10.23052 -12.07322,-19.28176 l -1.0061,0 c -1.17197,2.76585 -5.53171,4.86098 -8.38412,5.02686 l 0,-10.06096 c 4.27681,-3.5196 7.96582,-10.05741 8.71949,-14.41715 l 25.4879,0 z" /><path
         inkscape:connector-curvature="0"
         id="path3608"
         style="fill:#a66900;fill-opacity:1;fill-rule:nonzero;stroke:#000000;stroke-width:1.84631753;stroke-linecap:round;stroke-linejoin:round;stroke-miterlimit:4;stroke-dasharray:none;stroke-opacity:1"
         d="m 899.04801,631.99151 c 0,13.66348 3.85851,20.28785 8.88899,21.29395 l 0,17.10369 c -4.19388,-0.50515 -8.38413,-4.52562 -9.72559,-8.21471 l -1.17559,0 c -0.67058,13.24519 -9.72566,25.65377 -16.9342,31.85622 -7.21216,-6.20245 -16.26348,-18.61103 -16.93421,-31.85622 l -1.17558,0 c -1.34146,3.68909 -5.53172,7.70985 -9.72559,8.21471 l 0,-17.10369 c 5.03048,-1.0061 8.88898,-7.63047 8.88898,-21.29395 l 37.89279,0 z" /><path
         inkscape:connector-curvature="0"
         id="path3610"
         style="fill:#a66900;fill-opacity:1;fill-rule:nonzero;stroke:#000000;stroke-width:1.84631753;stroke-linecap:round;stroke-linejoin:round;stroke-miterlimit:4;stroke-dasharray:none;stroke-opacity:1"
         d="m 897.87604,610.02321 c 0.16617,6.87679 3.01829,16.76833 11.56829,18.44515 l 0,16.93782 c -5.53172,-0.33529 -11.23292,-4.02445 -11.73778,-12.24271 l -1.50733,0 c -0.0443,12.24271 -7.04275,27.16465 -16.0976,34.04152 -9.05486,-6.87687 -16.05432,-21.79881 -16.0976,-34.04152 l -1.50734,0 c -0.50515,8.21826 -6.20606,11.90735 -11.73778,12.24271 l 0,-16.93782 c 8.55001,-1.67682 11.40242,-11.56836 11.56829,-18.44515 l 35.54885,0 z" /><path
         inkscape:connector-curvature="0"
         id="path3612"
         style="fill:#a66900;fill-opacity:1;fill-rule:nonzero;stroke:#000000;stroke-width:1.84631753;stroke-linecap:round;stroke-linejoin:round;stroke-miterlimit:4;stroke-dasharray:none;stroke-opacity:1"
         d="m 902.90652,598.28897 c -1.34146,21.29395 -13.91946,35.20987 -22.8049,41.7513 -8.88537,-6.54143 -21.46344,-20.45735 -22.8049,-41.7513 l 45.6098,0 z" /><path
         inkscape:connector-curvature="0"
         id="path3614"
         style="fill:#a66900;fill-opacity:1;fill-rule:nonzero;stroke:#000000;stroke-width:1.84631753;stroke-linecap:round;stroke-linejoin:round;stroke-miterlimit:4;stroke-dasharray:none;stroke-opacity:1"
         d="m 909.27846,591.21027 0,19.98852 c -9.05486,-1.34146 -12.57801,-7.21215 -14.25483,-11.73785 l -1.8427,0 c -1.0061,8.71957 -7.71347,22.80498 -13.07931,28.00133 -5.36585,-5.19635 -12.07322,-19.28176 -13.07932,-28.00133 l -1.8427,0 c -1.67682,4.5257 -5.19996,10.39639 -14.25482,11.73785 l 0,-19.98852 58.35368,0 z" /><path
         inkscape:connector-curvature="0"
         id="path3616"
         style="fill:#a66900;fill-opacity:1;fill-rule:nonzero;stroke:#000000;stroke-width:1.84631753;stroke-linecap:round;stroke-linejoin:round;stroke-miterlimit:4;stroke-dasharray:none;stroke-opacity:1"
         d="m 655.91465,792.62837 c 0.83661,3.01828 3.43666,5.44878 5.78422,6.7073 l 0,10.2269 c -2.26462,0 -4.44276,-1.92933 -5.78422,-3.5196 l -0.84022,0 c -0.41801,2.76586 -1.6588,8.71957 -5.70121,10.2269 -4.03878,-1.50733 -5.27928,-7.46104 -5.7012,-10.2269 l -0.83661,0 c -1.34146,1.59027 -3.51959,3.5196 -5.78421,3.5196 l 0,-10.2269 c 2.34763,-1.25852 4.94399,-3.68902 5.78421,-6.7073 l 13.07924,0 z" /><path
         inkscape:connector-curvature="0"
         id="path3618"
         style="fill:#a66900;fill-opacity:1;fill-rule:nonzero;stroke:#000000;stroke-width:1.84631753;stroke-linecap:round;stroke-linejoin:round;stroke-miterlimit:4;stroke-dasharray:none;stroke-opacity:1"
         d="m 656.41589,774.34909 c 1.6769,5.36584 5.20004,8.55362 9.97809,9.39022 l 0,10.98419 c -3.18416,-0.16617 -6.95973,-2.51343 -8.63655,-5.61827 l -0.75374,0 c 0.33529,6.20606 -4.02439,12.4085 -7.63047,14.4207 -3.60246,-2.0122 -7.9622,-8.21464 -7.62684,-14.4207 l -0.75728,0 c -1.67328,3.10484 -5.44886,5.45239 -8.63302,5.61827 l 0,-10.98419 c 4.77805,-0.8366 8.30127,-4.02438 9.97448,-9.39022 l 14.08533,0 z" /><path
         inkscape:connector-curvature="0"
         id="path3620"
         style="fill:#a66900;fill-opacity:1;fill-rule:nonzero;stroke:#000000;stroke-width:1.84631753;stroke-linecap:round;stroke-linejoin:round;stroke-miterlimit:4;stroke-dasharray:none;stroke-opacity:1"
         d="m 658.42816,749.03076 c 1.67682,5.53171 7.04266,10.73168 10.90117,12.90974 l 0,15.93173 c -6.37194,-0.50515 -9.22435,-5.36584 -9.55971,-9.89508 l -1.0061,0 c 0,6.87679 -2.17814,16.09752 -9.3903,20.2914 -7.20854,-4.19388 -9.3866,-13.41461 -9.3866,-20.2914 l -1.00971,0 c -0.3353,4.52924 -3.18424,9.39022 -9.55617,9.89508 l 0,-15.93173 c 3.8585,-2.17806 9.2208,-7.37803 10.89763,-12.90974 l 18.10979,0 z" /><path
         inkscape:connector-curvature="0"
         id="path3622"
         style="fill:#a66900;fill-opacity:1;fill-rule:nonzero;stroke:#000000;stroke-width:1.84631753;stroke-linecap:round;stroke-linejoin:round;stroke-miterlimit:4;stroke-dasharray:none;stroke-opacity:1"
         d="m 675.70127,733.26852 0,16.93782 c -3.35365,-0.33529 -10.81462,-4.86467 -11.31948,-10.39639 l -1.00609,0 c -0.3353,8.71957 -6.28908,21.29395 -14.00248,27.33052 -7.71339,-6.03657 -13.66348,-18.61095 -13.99885,-27.33052 l -1.00609,0 c -0.50516,5.53172 -7.96583,10.06103 -11.31948,10.39639 l 0,-16.93782 52.65247,0 z" /><path
         inkscape:connector-curvature="0"
         id="path3624"
         style="fill:#a66900;fill-opacity:1;fill-rule:nonzero;stroke:#000000;stroke-width:1.84631753;stroke-linecap:round;stroke-linejoin:round;stroke-miterlimit:4;stroke-dasharray:none;stroke-opacity:1"
         d="m 675.70127,733.26852 c -2.85241,0 -13.74997,-1.67682 -14.59019,-15.0915 l -23.47564,0 c -0.83667,13.41468 -11.73423,15.0915 -14.58664,15.0915 l 52.65247,0 z" /><path
         inkscape:connector-curvature="0"
         id="path3626"
         style="fill:#a66900;fill-opacity:1;fill-rule:nonzero;stroke:#000000;stroke-width:1.84631753;stroke-linecap:round;stroke-linejoin:round;stroke-miterlimit:4;stroke-dasharray:none;stroke-opacity:1"
         d="m 678.38419,703.42095 0,17.94385 c -3.85851,-0.3353 -9.1378,-5.8707 -10.31338,-11.40242 l -1.0061,0 c -0.67058,10.22683 -11.48542,23.811 -17.69149,28.00125 -6.20244,-4.19025 -17.01714,-17.77442 -17.68787,-28.00125 l -1.00609,0 c -1.17559,5.53172 -6.45849,11.06705 -10.31338,11.40242 l 0,-17.94385 58.01831,0 z" /><path
         inkscape:connector-curvature="0"
         id="path3628"
         style="fill:#a66900;fill-opacity:1;fill-rule:nonzero;stroke:#000000;stroke-width:1.84631753;stroke-linecap:round;stroke-linejoin:round;stroke-miterlimit:4;stroke-dasharray:none;stroke-opacity:1"
         d="m 678.38419,703.42095 c -5.03048,0 -9.89508,-6.70737 -10.73168,-17.10007 l -36.55495,0 c -0.84022,10.3927 -5.70121,17.10007 -10.73168,17.10007 l 58.01831,0 z" /><path
         inkscape:connector-curvature="0"
         id="path3630"
         style="fill:#a66900;fill-opacity:1;fill-rule:nonzero;stroke:#000000;stroke-width:1.84631753;stroke-linecap:round;stroke-linejoin:round;stroke-miterlimit:4;stroke-dasharray:none;stroke-opacity:1"
         d="m 686.5989,668.04159 0,20.12198 c -4.02438,-1.34146 -11.31593,-7.04274 -12.66101,-13.75004 l -0.91954,0 c -1.34146,12.07322 -14.25483,30.18294 -23.64513,36.21958 -9.3866,-6.03664 -22.30004,-24.14636 -23.6415,-36.21958 l -0.92316,0 c -1.34146,6.7073 -8.63301,12.40858 -12.65739,13.75004 l 0,-20.12198 74.44773,0 z" /><path
         inkscape:connector-curvature="0"
         id="path3632"
         style="fill:#a66900;fill-opacity:1;fill-rule:nonzero;stroke:#000000;stroke-width:1.84631753;stroke-linecap:round;stroke-linejoin:round;stroke-miterlimit:4;stroke-dasharray:none;stroke-opacity:1"
         d="m 686.5989,668.04159 c -10.73176,-3.68901 -11.56836,-19.78661 -12.57446,-40.40983 l -49.29882,0 c -1.00609,20.62322 -1.8427,36.72082 -12.57445,40.40983 l 74.44773,0 z" /><path
         inkscape:connector-curvature="0"
         id="path3634"
         style="fill:#a66900;fill-opacity:1;fill-rule:nonzero;stroke:#000000;stroke-width:1.84631753;stroke-linecap:round;stroke-linejoin:round;stroke-miterlimit:4;stroke-dasharray:none;stroke-opacity:1"
         d="m 682.07328,623.27201 0,21.96468 c -7.21223,-1.00609 -11.23661,-11.06712 -11.90735,-17.60493 l -1.50733,0 c 0,11.06705 -3.01828,39.57323 -19.28538,50.13542 -16.26347,-10.56219 -19.28175,-39.06837 -19.28175,-50.13542 l -1.50734,0 c -0.67058,6.53781 -4.69511,16.59884 -11.90727,17.60493 l 0,-21.96468 65.39642,0 z" /><path
         inkscape:connector-curvature="0"
         id="path3636"
         style="fill:#a66900;fill-opacity:1;fill-rule:nonzero;stroke:#000000;stroke-width:1.84631753;stroke-linecap:round;stroke-linejoin:round;stroke-miterlimit:4;stroke-dasharray:none;stroke-opacity:1"
         d="m 676.87324,592.2524 0,20.62322 c -4.86099,-0.33529 -8.88537,-6.87679 -11.23292,-11.40241 l -1.51096,0 c 1.0061,7.20854 -0.8366,25.98906 -14.75614,33.20122 -13.91591,-7.21216 -15.76223,-25.99268 -14.75613,-33.20122 l -1.50734,0 c -2.34755,4.52562 -6.37194,11.06705 -11.23292,11.40241 l 0,-20.62322 54.99641,0 z" /></g></g></svg>